<svg xmlns="http://www.w3.org/2000/svg" width="135" height="40" fill="none"><path fill="#fff" d="M24.945 21.017c-.037-4.043 3.31-6.01 3.463-6.1-1.896-2.764-4.833-3.142-5.866-3.172-2.467-.26-4.86 1.477-6.117 1.477-1.282 0-3.217-1.452-5.303-1.409-2.685.041-5.196 1.595-6.573 4.009-2.842 4.92-.722 12.152 2 16.13 1.363 1.947 2.955 4.122 5.038 4.046 2.038-.084 2.8-1.3 5.26-1.3 2.437 0 3.152 1.3 5.277 1.25 2.187-.034 3.564-1.956 4.879-3.922 1.574-2.232 2.206-4.431 2.231-4.544-.051-.017-4.248-1.62-4.29-6.465M20.93 9.129C22.027 7.758 22.777 5.893 22.57 4c-1.587.07-3.572 1.098-4.714 2.438-1.011 1.182-1.915 3.119-1.681 4.94 1.782.133 3.612-.9 4.756-2.249M40.84 13V4.36h2.664q.132 0 .462.006t.63.048q1.002.132 1.674.732.678.594 1.02 1.512t.342 2.022-.342 2.022a3.7 3.7 0 0 1-1.02 1.518q-.672.594-1.674.726-.3.036-.636.048-.33.006-.456.006zm1.098-1.02h1.566q.228 0 .51-.012.282-.018.492-.054.708-.132 1.146-.594t.642-1.152.204-1.488q0-.816-.21-1.506a2.75 2.75 0 0 0-.642-1.146q-.438-.456-1.14-.582a3 3 0 0 0-.498-.054q-.288-.012-.504-.012h-1.566zm9.83 1.2q-.966 0-1.668-.438a2.9 2.9 0 0 1-1.074-1.212q-.378-.774-.378-1.776 0-1.02.384-1.788t1.086-1.194q.702-.432 1.65-.432.972 0 1.674.438.702.432 1.074 1.206.378.768.378 1.77 0 1.014-.378 1.788a2.9 2.9 0 0 1-1.08 1.206q-.702.432-1.668.432m0-1.014q1.008 0 1.5-.672t.492-1.74q0-1.098-.498-1.746-.498-.654-1.494-.654-.678 0-1.116.306t-.654.846-.216 1.248q0 1.092.504 1.752t1.482.66m5.593.834-1.98-6.486 1.062.006 1.446 4.74 1.458-4.74h.942l1.452 4.74 1.452-4.74h1.056L62.269 13h-.888l-1.566-4.926L58.249 13zm12.585 0V9.754q0-.462-.084-.888a2.2 2.2 0 0 0-.282-.762 1.46 1.46 0 0 0-.54-.54q-.336-.198-.852-.198a1.9 1.9 0 0 0-.732.138 1.4 1.4 0 0 0-.558.408 2 2 0 0 0-.366.696 3.4 3.4 0 0 0-.126.978l-.702-.216q0-.942.336-1.614.342-.678.954-1.038.618-.366 1.452-.366.63 0 1.074.198t.738.528q.294.324.462.732.168.402.234.822.072.414.072.786V13zm-4.62 0V6.52h.96v1.734h.12V13zm7.38 0V4.18h1.068V13zm5.628.18q-.966 0-1.668-.438a2.9 2.9 0 0 1-1.074-1.212q-.378-.774-.378-1.776 0-1.02.384-1.788t1.086-1.194q.702-.432 1.65-.432.972 0 1.674.438.702.432 1.074 1.206.378.768.378 1.77 0 1.014-.378 1.788a2.9 2.9 0 0 1-1.08 1.206q-.702.432-1.668.432m0-1.014q1.008 0 1.5-.672t.492-1.74q0-1.098-.498-1.746-.498-.654-1.494-.654-.678 0-1.116.306t-.654.846-.216 1.248q0 1.092.504 1.752t1.482.66m6.29 1.014q-.727 0-1.219-.264a1.9 1.9 0 0 1-.738-.708 1.9 1.9 0 0 1-.246-.96q0-.51.192-.882.198-.378.552-.624.354-.252.846-.396a10 10 0 0 1 1.032-.216 35 35 0 0 1 1.164-.174q.588-.078 1.098-.15l-.384.222q.018-.864-.348-1.278-.36-.414-1.248-.414-.588 0-1.032.27-.438.264-.618.864l-1.014-.306q.234-.852.906-1.338t1.77-.486q.882 0 1.512.318.636.312.912.948.138.3.174.654.036.348.036.732V13h-.948v-1.554l.222.144q-.366.786-1.026 1.188-.654.402-1.596.402m.161-.894q.576 0 .996-.204.426-.21.684-.546.258-.342.336-.744.09-.3.096-.666.012-.372.012-.57l.372.162q-.522.072-1.026.138T85.3 10q-.45.072-.81.174a2.6 2.6 0 0 0-.498.216 1.1 1.1 0 0 0-.372.342.9.9 0 0 0-.138.51q0 .264.132.504.138.24.42.39.288.15.75.15m7.29.894q-.906 0-1.554-.45a3 3 0 0 1-1.002-1.23q-.348-.774-.348-1.746t.348-1.746q.354-.774 1.002-1.218.648-.45 1.548-.45.918 0 1.542.444t.942 1.218q.324.774.324 1.752 0 .966-.324 1.746a2.8 2.8 0 0 1-.942 1.23q-.624.45-1.536.45m.132-.978q.654 0 1.074-.312.42-.318.618-.87a3.7 3.7 0 0 0 .204-1.266q0-.72-.204-1.266a1.8 1.8 0 0 0-.612-.858q-.414-.312-1.05-.312-.66 0-1.092.324a1.94 1.94 0 0 0-.636.876q-.204.552-.204 1.236 0 .69.21 1.248.21.552.63.876.426.324 1.062.324m1.896.798V8.23h-.12V4.36h1.074V13zm7.798.18q-.966 0-1.668-.438a2.9 2.9 0 0 1-1.074-1.212q-.378-.774-.378-1.776 0-1.02.384-1.788t1.086-1.194q.702-.432 1.65-.432.972 0 1.674.438.702.432 1.074 1.206.378.768.378 1.77 0 1.014-.378 1.788a2.9 2.9 0 0 1-1.08 1.206q-.702.432-1.668.432m0-1.014q1.008 0 1.5-.672t.492-1.74q0-1.098-.498-1.746-.498-.654-1.494-.654-.678 0-1.116.306t-.654.846a3.3 3.3 0 0 0-.216 1.248q0 1.092.504 1.752t1.482.66m9.061.834V9.754q0-.462-.084-.888a2.2 2.2 0 0 0-.282-.762 1.46 1.46 0 0 0-.54-.54q-.336-.198-.852-.198a1.9 1.9 0 0 0-.732.138 1.4 1.4 0 0 0-.558.408 2 2 0 0 0-.366.696 3.4 3.4 0 0 0-.126.978l-.702-.216q0-.942.336-1.614.342-.678.954-1.038.618-.366 1.452-.366.63 0 1.074.198t.738.528q.294.324.462.732.168.402.234.822.072.414.072.786V13zm-4.62 0V6.52h.96v1.734h.12V13zm13.28 0a4.8 4.8 0 0 1-1.14.09 2.5 2.5 0 0 1-.996-.222 1.43 1.43 0 0 1-.666-.648 1.9 1.9 0 0 1-.21-.774 30 30 0 0 1-.012-.894V4.72h1.068v5.784q0 .396.006.678.012.282.126.486.216.384.684.45.474.066 1.14-.036zm-4.338-5.598V6.52h4.338v.882zM125.552 13V9.754q0-.462-.084-.888a2.2 2.2 0 0 0-.282-.762 1.46 1.46 0 0 0-.54-.54q-.336-.198-.852-.198a1.9 1.9 0 0 0-.732.138 1.4 1.4 0 0 0-.558.408 2 2 0 0 0-.366.696 3.4 3.4 0 0 0-.126.978l-.702-.216q0-.942.336-1.614.342-.678.954-1.038.618-.366 1.452-.366.63 0 1.074.198t.738.528q.294.324.462.732.168.402.234.822.072.414.072.786V13zm-4.62 0V4.36h.96v4.77h.12V13zm10.068.18q-.954 0-1.668-.42a2.94 2.94 0 0 1-1.104-1.182q-.396-.762-.396-1.776 0-1.062.39-1.836.39-.78 1.086-1.2.702-.426 1.644-.426.978 0 1.662.45.69.45 1.032 1.284.348.834.3 1.986h-1.08v-.384q-.018-1.194-.486-1.782-.468-.594-1.392-.594-.99 0-1.506.636t-.516 1.824q0 1.146.516 1.776t1.47.63q.642 0 1.116-.294a2 2 0 0 0 .744-.846l1.026.354a2.9 2.9 0 0 1-1.14 1.332 3.16 3.16 0 0 1-1.698.468m-2.394-3.12v-.858h4.788v.858zM40.36 34l3.96-12.96h3.654L51.934 34h-2.52l-3.528-11.43h.468L42.88 34zm2.376-2.7v-2.286h6.84V31.3zm15.581 2.97q-1.45 0-2.42-.675-.973-.675-1.468-1.836-.486-1.161-.486-2.619t.486-2.619 1.431-1.836 2.331-.675q1.395 0 2.43.666a4.44 4.44 0 0 1 1.602 1.827q.576 1.152.576 2.637 0 1.458-.567 2.619-.558 1.161-1.566 1.836t-2.349.675m-4.788 4.05V24.28h2.16v6.66h.306v7.38zm4.392-6.228q.792 0 1.296-.396a2.33 2.33 0 0 0 .747-1.062q.243-.675.243-1.494 0-.81-.252-1.476a2.3 2.3 0 0 0-.783-1.071q-.522-.405-1.34-.405-.765 0-1.243.369-.468.369-.684 1.035t-.216 1.548.216 1.548.702 1.035q.495.369 1.314.369M69.55 34.27q-1.45 0-2.42-.675-.972-.675-1.468-1.836-.485-1.161-.486-2.619 0-1.458.487-2.619.485-1.161 1.43-1.836t2.332-.675q1.395 0 2.43.666a4.44 4.44 0 0 1 1.602 1.827q.575 1.152.575 2.637 0 1.458-.567 2.619-.557 1.161-1.565 1.836t-2.35.675m-4.788 4.05V24.28h2.16v6.66h.306v7.38zm4.392-6.228q.792 0 1.296-.396a2.33 2.33 0 0 0 .748-1.062q.243-.675.242-1.494 0-.81-.251-1.476a2.3 2.3 0 0 0-.784-1.071q-.52-.405-1.34-.405-.765 0-1.242.369-.468.369-.684 1.035t-.217 1.548.216 1.548.703 1.035q.495.369 1.313.369m15.358 2.178q-1.44 0-2.6-.504a4.94 4.94 0 0 1-1.9-1.458q-.738-.954-.935-2.268l2.556-.378q.27 1.116 1.115 1.719a3.24 3.24 0 0 0 1.927.603q.602 0 1.17-.189.567-.189.927-.558.368-.369.368-.909 0-.198-.062-.378a1 1 0 0 0-.19-.351 1.4 1.4 0 0 0-.386-.306 3 3 0 0 0-.622-.261l-3.366-.99a10 10 0 0 1-.882-.306 3.9 3.9 0 0 1-.963-.567 3 3 0 0 1-.783-.972q-.306-.612-.306-1.539 0-1.305.658-2.169.657-.864 1.755-1.287 1.096-.423 2.43-.414 1.341.018 2.394.459 1.052.441 1.763 1.287.712.837 1.027 2.052l-2.646.45a2.34 2.34 0 0 0-.531-1.062 2.54 2.54 0 0 0-.928-.657 3.1 3.1 0 0 0-1.116-.243 3 3 0 0 0-1.089.162 2.05 2.05 0 0 0-.828.504q-.315.333-.315.792 0 .423.261.693.262.261.657.423.397.162.81.27l2.25.612q.505.135 1.117.36.61.216 1.17.612.566.387.926 1.026.37.639.37 1.62 0 1.044-.442 1.827a3.8 3.8 0 0 1-1.17 1.287 5.5 5.5 0 0 1-1.674.756 7.3 7.3 0 0 1-1.916.252M97.525 34a9.3 9.3 0 0 1-1.98.162q-.963-.018-1.728-.333a2.34 2.34 0 0 1-1.152-1.035 3 3 0 0 1-.378-1.35 61 61 0 0 1-.018-1.566V21.58h2.448v8.154q0 .567.009 1.026.018.45.189.72.323.513 1.035.558.711.045 1.575-.072zm-6.912-7.83v-1.89h6.912v1.89zm12.924 8.1q-1.467 0-2.574-.657a4.6 4.6 0 0 1-1.728-1.809q-.612-1.161-.612-2.664 0-1.521.63-2.673a4.6 4.6 0 0 1 1.737-1.809q1.107-.648 2.547-.648 1.467 0 2.574.657a4.57 4.57 0 0 1 1.737 1.818q.621 1.152.621 2.655 0 1.512-.63 2.673a4.6 4.6 0 0 1-1.737 1.809q-1.107.648-2.565.648m0-2.286q1.179 0 1.755-.792.585-.801.585-2.052 0-1.296-.594-2.07-.585-.774-1.746-.774-.801 0-1.314.36t-.765.999q-.243.639-.243 1.485 0 1.305.585 2.079.594.765 1.737.765M110.448 34v-9.72h2.16v2.376l-.234-.306q.189-.504.504-.918a2.7 2.7 0 0 1 .774-.684q.351-.216.765-.333.414-.126.855-.153.441-.036.882.018v2.286a2.5 2.5 0 0 0-.945-.081 2.6 2.6 0 0 0-.963.243 2.18 2.18 0 0 0-1.179 1.305 3 3 0 0 0-.153.999V34zm11.76.27q-1.494 0-2.637-.639a4.7 4.7 0 0 1-1.782-1.773q-.639-1.134-.639-2.592 0-1.593.63-2.772a4.55 4.55 0 0 1 1.737-1.827q1.107-.657 2.547-.657 1.53 0 2.601.72t1.584 2.025.36 3.069h-2.421v-.9q0-1.485-.477-2.133-.468-.657-1.539-.657-1.251 0-1.845.765-.585.756-.585 2.241 0 1.359.585 2.106.594.738 1.737.738.72 0 1.233-.315a2 2 0 0 0 .783-.909l2.448.702a4.3 4.3 0 0 1-1.737 2.07 4.77 4.77 0 0 1-2.583.738m-3.222-4.446v-1.818h6.444v1.818z"/></svg>