<svg width="56" height="56" viewBox="0 0 56 56" fill="none" xmlns="http://www.w3.org/2000/svg">
<path d="M28 28C34.7655 28 40.25 22.5155 40.25 15.75C40.25 8.98451 34.7655 3.5 28 3.5C21.2345 3.5 15.75 8.98451 15.75 15.75C15.75 22.5155 21.2345 28 28 28Z" fill="#0D169E"/>
<path d="M24.8047 38.0783L28.0002 41.2755L31.1974 38.0783L28.5654 31.5H27.4349L24.8047 38.0783Z" fill="#0D169E"/>
<path d="M52.099 46.3279C51.3707 42.3421 49.6631 38.5999 47.1298 35.4377C44.5966 32.2754 41.3171 29.7924 37.5863 28.2119C35.9567 29.4694 34.0964 30.3952 32.1105 30.9367L34.4468 36.7782C34.7013 37.414 34.7637 38.1106 34.6262 38.7816C34.4888 39.4525 34.1574 40.0684 33.6733 40.5529L30.4743 43.7502C29.8179 44.4063 28.9279 44.7749 27.9998 44.7749C27.0717 44.7749 26.1816 44.4063 25.5253 43.7502L22.328 40.5529C21.844 40.0688 21.5125 39.4533 21.3747 38.7826C21.2369 38.112 21.2988 37.4157 21.5528 36.7799L23.889 30.9367C21.9032 30.3952 20.0428 29.4694 18.4133 28.2119C14.6825 29.7924 11.403 32.2754 8.86975 35.4377C6.33649 38.5999 4.62891 42.3421 3.90054 46.3279C3.7628 47.0794 3.79254 47.852 3.98765 48.5907C4.18275 49.3294 4.53842 50.016 5.02929 50.6014C5.52338 51.1959 6.14238 51.6742 6.84228 52.0024C7.54217 52.3306 8.30578 52.5005 9.07879 52.5002H46.9208C47.6938 52.5005 48.4574 52.3306 49.1573 52.0024C49.8572 51.6742 50.4762 51.1959 50.9703 50.6014C51.4612 50.016 51.8168 49.3294 52.0119 48.5907C52.207 47.852 52.2368 47.0794 52.099 46.3279Z" fill="#0D169E"/>
</svg>
