<svg width="56" height="56" viewBox="0 0 56 56" fill="none" xmlns="http://www.w3.org/2000/svg">
<path d="M44.82 6.93994H7.46C3.34 6.93994 0 10.2999 0 14.4199V34.9199C0 39.0399 3.34 42.3799 7.46 42.3799H34.358V38.6499V37.9579V31.4419L34.408 31.4739C34.914 27.7739 39.81 25.2419 46.674 25.2419C48.756 25.2419 50.628 25.4979 52.282 25.9259V14.4199C52.28 10.2999 48.94 6.93994 44.82 6.93994ZM9.958 36.7139H7.468C6.474 36.7139 5.668 35.9079 5.668 34.9139C5.668 33.9199 6.474 33.1139 7.468 33.1139H9.958C10.952 33.1139 11.758 33.9199 11.758 34.9139C11.758 35.9079 10.952 36.7139 9.958 36.7139ZM31.878 26.7479C31.878 29.9159 29.31 32.4859 26.14 32.4859C22.972 32.4859 20.402 29.9179 20.402 26.7479V22.5859C20.402 19.4179 22.97 16.8479 26.14 16.8479C29.308 16.8479 31.878 19.4159 31.878 22.5859V26.7479ZM44.812 16.2199H42.322C41.328 16.2199 40.522 15.4139 40.522 14.4199C40.522 13.4259 41.328 12.6199 42.322 12.6199H44.812C45.806 12.6199 46.612 13.4259 46.612 14.4199C46.612 15.4139 45.806 16.2199 44.812 16.2199Z" fill="#0D169E"/>
<path d="M56.0004 32.1117C56.0004 33.4817 54.2663 34.6957 51.6464 35.3737C50.2144 35.7617 48.5044 35.9797 46.6744 35.9797C44.8544 35.9797 43.1444 35.7617 41.7144 35.3737C39.0944 34.6937 37.3604 33.4937 37.3604 32.1117C37.3604 29.9777 41.5323 28.2417 46.6763 28.2417C51.8284 28.2417 56.0004 29.9757 56.0004 32.1117Z" fill="#0D169E"/>
<path d="M52.3984 38.28C50.7124 38.736 48.7224 38.982 46.6724 38.982C44.6304 38.982 42.6424 38.736 40.9264 38.272C39.4184 37.882 38.2564 37.376 37.3564 36.82V38.65C37.3564 40.032 39.0904 41.234 41.7104 41.926C43.1424 42.302 44.8524 42.52 46.6704 42.52C48.5024 42.52 50.2124 42.302 51.6444 41.926C54.2664 41.232 56.0004 40.02 56.0004 38.65V36.814C55.0944 37.374 53.9224 37.884 52.3984 38.28Z" fill="#0D169E"/>
<path d="M52.4104 44.826C50.6864 45.28 48.7024 45.52 46.6724 45.52C44.6484 45.52 42.6704 45.28 40.9464 44.826C39.4284 44.426 38.2604 43.914 37.3564 43.354V45.188C37.3564 47.322 41.5284 49.058 46.6724 49.058C51.8264 49.058 56.0004 47.324 56.0004 45.188V43.354C55.0964 43.914 53.9284 44.426 52.4104 44.826Z" fill="#0D169E"/>
</svg>
