<svg width="56" height="56" viewBox="0 0 56 56" fill="none" xmlns="http://www.w3.org/2000/svg">
<g clip-path="url(#clip0_33806_25)">
<path d="M26.782 29.2222C26.427 28.8653 26.2314 28.3897 26.2314 27.8831V1.64055C26.2314 1.16761 26.0273 0.717639 25.6714 0.406139C25.3155 0.09453 24.8426 -0.0479856 24.3737 0.0143581C10.5868 1.85415 0 13.6712 0 27.883C0 43.3867 12.612 55.9998 28.1142 55.9998C34.3385 55.9998 40.2371 54.0061 45.1721 50.2344C45.548 49.9471 45.7815 49.5117 45.8128 49.0396C45.8442 48.5677 45.6703 48.105 45.3358 47.7705L26.782 29.2222ZM15.5823 36.4004V36.7862C15.5823 37.6923 14.8478 38.4269 13.9417 38.4269C13.0356 38.4269 12.3011 37.6923 12.3011 36.7862V36.4891C10.7661 36.1566 9.68111 35.4718 9.52842 35.3718C8.76881 34.8779 8.55345 33.8617 9.04739 33.102C9.54133 32.3424 10.5576 32.1271 11.3173 32.621C11.3293 32.6287 12.539 33.3884 13.9417 33.3884C14.975 33.3884 15.8156 32.5477 15.8156 31.5145C15.8156 30.5206 14.3097 29.8587 13.4121 29.5526C9.58891 28.249 8.78642 26.0774 8.78642 24.4852C8.78642 22.2162 10.2606 20.2862 12.301 19.5993V19.2134C12.301 18.3073 13.0355 17.5728 13.9416 17.5728C14.8477 17.5728 15.5822 18.3073 15.5822 19.2134V19.5981C16.3254 19.8474 17.0088 20.2657 17.5835 20.8355C18.2268 21.4736 18.2311 22.5125 17.593 23.1558C16.955 23.7992 15.9161 23.8034 15.2728 23.1653C14.9126 22.808 14.4398 22.6113 13.9416 22.6113C12.9083 22.6113 12.0677 23.452 12.0677 24.4853C12.0677 25.4792 13.5735 26.141 14.4711 26.4471C18.2943 27.7508 19.0968 29.9224 19.0968 31.5146C19.0969 33.7835 17.6227 35.7134 15.5823 36.4004Z" fill="#0D169E"/>
<path d="M55.5934 30.3331C55.2818 29.977 54.8319 29.7729 54.3589 29.7729H36.6367C35.9731 29.7729 35.3748 30.1727 35.1209 30.7859C34.8671 31.399 35.0075 32.1048 35.4769 32.5739L48.0063 45.0989C48.315 45.4075 48.7327 45.5793 49.1661 45.5793C49.2027 45.5793 49.2394 45.5781 49.2762 45.5756C49.7483 45.5439 50.1839 45.3098 50.4709 44.9335C53.4349 41.0469 55.3418 36.4468 55.9853 31.6309C56.0477 31.162 55.9049 30.689 55.5934 30.3331Z" fill="#0D169E"/>
<path d="M31.6465 25.9934H54.3594C54.8323 25.9934 55.2823 25.7893 55.5938 25.4335C55.9054 25.0776 56.0482 24.6047 55.9856 24.1359C54.3142 11.606 44.3948 1.68702 31.8635 0.014569C31.394 -0.048431 30.9217 0.0948502 30.5659 0.40635C30.21 0.71785 30.0059 1.16782 30.0059 1.64076V24.3528C30.0059 25.2589 30.7404 25.9934 31.6465 25.9934Z" fill="#0D169E"/>
</g>
<defs>
<clipPath id="clip0_33806_25">
<rect width="56" height="56" fill="white"/>
</clipPath>
</defs>
</svg>
