<svg xmlns="http://www.w3.org/2000/svg" width="145" height="40" fill="none"><path fill="url(#a)" d="M2.186 4.504a2.5 2.5 0 0 0-.572 1.741v27.509a2.5 2.5 0 0 0 .572 1.74l.087.088L17.68 20.186v-.36L2.273 4.416z"/><path fill="url(#b)" d="m22.78 25.323-5.098-5.136v-.36l5.099-5.15.111.063L29 18.21c1.74.982 1.74 2.599 0 3.594l-6.082 3.457z"/><path fill="url(#c)" d="M22.931 25.248 17.683 20 2.188 35.495a2.03 2.03 0 0 0 2.586.075l18.17-10.322"/><path fill="url(#d)" d="M22.928 14.752 4.758 4.43a2.03 2.03 0 0 0-2.586.075L17.68 20z"/><path fill="#000" d="m22.782 25.136-18.02 10.26a2.08 2.08 0 0 1-2.487 0l-.087.087.087.087a2.064 2.064 0 0 0 2.487 0L22.93 25.248z" opacity=".2"/><path fill="#000" d="M2.186 35.321a2.5 2.5 0 0 1-.572-1.74v.186a2.5 2.5 0 0 0 .572 1.74l.087-.086zm26.812-13.704-6.218 3.52.112.111 6.106-3.457A2.18 2.18 0 0 0 30.242 20a2.31 2.31 0 0 1-1.244 1.617" opacity=".12"/><path fill="#fff" d="M4.76 4.604 29 18.384A2.32 2.32 0 0 1 30.242 20a2.18 2.18 0 0 0-1.244-1.79L4.76 4.43c-1.74-.983-3.158-.162-3.158 1.828v.187c.037-2.003 1.43-2.823 3.158-1.841" opacity=".25"/><path fill="#fff" d="M44.338 13.18a4.1 4.1 0 0 1-1.62-.312 3.6 3.6 0 0 1-1.26-.894 4.1 4.1 0 0 1-.816-1.416q-.282-.834-.282-1.878 0-1.38.492-2.388t1.386-1.554q.894-.552 2.1-.552 1.452 0 2.34.678.888.672 1.224 1.842l-1.08.222a2.6 2.6 0 0 0-.888-1.254q-.618-.468-1.542-.468-.966-.006-1.608.432-.636.432-.96 1.218t-.33 1.824q-.006 1.032.318 1.812t.966 1.224q.648.438 1.614.444.834.006 1.404-.318t.882-.936.378-1.47H45.22v-.882h2.964q.018.12.018.288.006.162.006.222 0 1.182-.444 2.118a3.37 3.37 0 0 1-1.302 1.464q-.858.534-2.124.534m5.068-.18V4.36h5.46v1.014h-4.392V8.08h3.672v1.014h-3.672v2.892h4.392V13zm9.129 0V5.374h-2.946V4.36h6.96v1.014h-2.946V13zm7.128 0V4.36h1.068V13zm2.868 0V4.36h1.08l4.506 6.75V4.36h1.08V13h-1.08l-4.506-6.756V13zm14.298.18q-1.29 0-2.19-.57a3.66 3.66 0 0 1-1.373-1.584q-.469-1.014-.469-2.346t.469-2.346a3.66 3.66 0 0 1 1.373-1.584q.9-.57 2.19-.57 1.297 0 2.197.57t1.368 1.584.468 2.346-.468 2.346a3.63 3.63 0 0 1-1.369 1.584q-.9.57-2.196.57m0-1.02q.967.006 1.609-.432.648-.444.965-1.23.324-.786.325-1.818 0-1.038-.325-1.818a2.6 2.6 0 0 0-.966-1.218q-.64-.438-1.608-.444-.966-.006-1.607.432-.636.438-.96 1.224t-.33 1.824q-.006 1.032.317 1.812.324.78.967 1.224.647.438 1.614.444m5.238.84V4.36h1.08l4.506 6.75V4.36h1.08V13h-1.08l-4.506-6.756V13zM46.66 34.27a6.4 6.4 0 0 1-2.331-.432 5.8 5.8 0 0 1-1.962-1.296q-.846-.855-1.341-2.115-.486-1.26-.486-2.907 0-2.151.819-3.654.828-1.512 2.214-2.304 1.395-.792 3.087-.792 2.502 0 3.933 1.161t1.917 3.285l-2.502.36q-.351-1.134-1.152-1.809-.792-.684-2.034-.693-1.233-.018-2.052.531t-1.233 1.557q-.405 1.008-.405 2.358t.405 2.34q.414.99 1.233 1.539t2.052.567a3.44 3.44 0 0 0 1.512-.288q.684-.306 1.152-.963t.666-1.683H48.1v-1.89h4.662q.018.117.027.414l.009.342q0 1.863-.756 3.303a5.6 5.6 0 0 1-2.133 2.259q-1.377.81-3.249.81m12.316 0q-1.467 0-2.574-.657a4.6 4.6 0 0 1-1.728-1.809q-.612-1.161-.612-2.664 0-1.521.63-2.673a4.6 4.6 0 0 1 1.737-1.809q1.107-.648 2.547-.648 1.467 0 2.574.657a4.57 4.57 0 0 1 1.737 1.818q.62 1.152.62 2.655 0 1.512-.63 2.673a4.6 4.6 0 0 1-1.736 1.809q-1.107.648-2.565.648m0-2.286q1.178 0 1.755-.792.585-.801.585-2.052 0-1.296-.594-2.07-.585-.774-1.746-.774-.801 0-1.314.36t-.765.999q-.243.639-.243 1.485 0 1.305.585 2.079.594.765 1.737.765M70.26 34.27q-1.467 0-2.574-.657a4.6 4.6 0 0 1-1.728-1.809q-.612-1.161-.612-2.664 0-1.521.63-2.673a4.6 4.6 0 0 1 1.737-1.809q1.107-.648 2.547-.648 1.467 0 2.574.657a4.57 4.57 0 0 1 1.737 1.818q.621 1.152.621 2.655 0 1.512-.63 2.673a4.6 4.6 0 0 1-1.737 1.809q-1.107.648-2.565.648m0-2.286q1.179 0 1.755-.792.585-.801.585-2.052 0-1.296-.594-2.07-.585-.774-1.746-.774-.801 0-1.314.36t-.765.999q-.243.639-.243 1.485 0 1.305.585 2.079.594.765 1.737.765m11.07 6.606q-.83 0-1.576-.27a4.5 4.5 0 0 1-1.34-.738 4 4 0 0 1-.955-1.098l2.268-1.098q.234.432.666.657.441.225.954.225a2.8 2.8 0 0 0 1.035-.189q.486-.18.774-.549.297-.36.28-.9v-2.826h.305V24.28h2.142v10.386q0 .36-.036.675a4 4 0 0 1-.108.639 2.93 2.93 0 0 1-.873 1.467q-.63.576-1.548.855a6.6 6.6 0 0 1-1.989.288m-.217-4.32q-1.341 0-2.349-.675t-1.575-1.836q-.558-1.161-.558-2.619 0-1.485.567-2.637a4.5 4.5 0 0 1 1.611-1.827q1.035-.666 2.43-.666 1.386 0 2.331.675T85 26.521t.486 2.619-.495 2.619q-.486 1.161-1.458 1.836t-2.42.675m.396-2.178q.819 0 1.305-.369.495-.369.711-1.035t.216-1.548-.216-1.548-.693-1.035q-.468-.369-1.233-.369-.819 0-1.35.405a2.33 2.33 0 0 0-.774 1.071 4.1 4.1 0 0 0-.252 1.476q0 .819.243 1.494.243.666.747 1.062t1.296.396M88.585 34V20.77h2.448V34zm9.664.27q-1.494 0-2.637-.639a4.7 4.7 0 0 1-1.782-1.773q-.64-1.134-.64-2.592 0-1.593.63-2.772a4.55 4.55 0 0 1 1.738-1.827q1.107-.657 2.547-.657 1.53 0 2.601.72t1.584 2.025.36 3.069h-2.421v-.9q0-1.485-.477-2.133-.468-.657-1.54-.657-1.25 0-1.844.765-.585.756-.585 2.241 0 1.359.585 2.106.594.738 1.737.738.72 0 1.233-.315t.783-.909l2.448.702a4.3 4.3 0 0 1-1.737 2.07 4.8 4.8 0 0 1-2.583.738m-3.222-4.446v-1.818h6.444v1.818zM108.285 34V21.04h5.472q.189 0 .504.018.324.009.576.054 1.161.18 1.899.765.747.585 1.098 1.476.351.882.351 1.971t-.36 1.98a3.45 3.45 0 0 1-1.098 1.467q-.738.585-1.89.765a10 10 0 0 1-1.08.072h-3.024V34zm2.448-6.678h2.916q.189 0 .414-.018t.414-.072q.495-.135.765-.45.27-.324.369-.711.108-.396.108-.747t-.108-.738a1.7 1.7 0 0 0-.369-.711q-.27-.324-.765-.459a2 2 0 0 0-.414-.072 5 5 0 0 0-.414-.018h-2.916zM120.172 34V20.77h2.448V34zm7.847.27q-1.044 0-1.773-.396a2.8 2.8 0 0 1-1.098-1.071 3.05 3.05 0 0 1-.369-1.485q0-.675.207-1.233t.666-.981q.468-.432 1.251-.72.54-.198 1.287-.351a29 29 0 0 1 1.692-.288l2.079-.315-.882.486q0-.864-.414-1.269t-1.386-.405q-.54 0-1.125.261t-.819.927l-2.214-.702a3.76 3.76 0 0 1 1.386-1.962q1.017-.756 2.772-.756 1.287 0 2.286.396t1.512 1.368q.288.54.342 1.08t.054 1.206V34h-2.142v-1.998l.306.414q-.711.981-1.539 1.422-.819.432-2.079.432m.522-1.926q.675 0 1.134-.234.468-.243.738-.549.279-.306.378-.513.189-.396.216-.918.036-.531.036-.882l.72.18q-1.089.18-1.764.306-.675.117-1.089.216a6 6 0 0 0-.729.216 2.5 2.5 0 0 0-.585.315 1.1 1.1 0 0 0-.324.36 1 1 0 0 0-.099.441q0 .333.162.576.171.234.477.36t.729.126m7.969 5.976 1.872-5.148.036 1.512-4.23-10.404h2.538l2.844 7.362h-.576l2.826-7.362h2.448l-5.49 14.04z"/><defs><linearGradient id="a" x1="16.313" x2="-4.554" y1="5.959" y2="26.827" gradientUnits="userSpaceOnUse"><stop stop-color="#00A0FF"/><stop offset=".01" stop-color="#00A1FF"/><stop offset=".26" stop-color="#00BEFF"/><stop offset=".51" stop-color="#00D2FF"/><stop offset=".76" stop-color="#00DFFF"/><stop offset="1" stop-color="#00E3FF"/></linearGradient><linearGradient id="b" x1="31.274" x2="1.191" y1="20" y2="20" gradientUnits="userSpaceOnUse"><stop stop-color="#FFE000"/><stop offset=".41" stop-color="#FFBD00"/><stop offset=".78" stop-color="orange"/><stop offset="1" stop-color="#FF9C00"/></linearGradient><linearGradient id="c" x1="20.083" x2="-8.221" y1="22.86" y2="51.153" gradientUnits="userSpaceOnUse"><stop stop-color="#FF3A44"/><stop offset="1" stop-color="#C31162"/></linearGradient><linearGradient id="d" x1="-1.721" x2="10.914" y1="-4.648" y2="7.987" gradientUnits="userSpaceOnUse"><stop stop-color="#32A071"/><stop offset=".07" stop-color="#2DA771"/><stop offset=".48" stop-color="#15CF74"/><stop offset=".8" stop-color="#06E775"/><stop offset="1" stop-color="#00F076"/></linearGradient></defs></svg>